<mxfile host="65bd71144e" pages="2">
    <diagram id="prtHgNgQTEPvFCAcTncT" name="POOL">
        <mxGraphModel dx="273" dy="432" grid="1" gridSize="10" guides="1" tooltips="1" connect="1" arrows="1" fold="1" page="1" pageScale="1" pageWidth="1169" pageHeight="827" math="0" shadow="0">
            <root>
                <mxCell id="0"/>
                <mxCell id="1" parent="0"/>
                <mxCell id="layP9ToiB4lRC02KzmWV-31" value="" style="rounded=1;whiteSpace=wrap;html=1;absoluteArcSize=1;arcSize=14;strokeWidth=2;fillColor=#008a00;strokeColor=#005700;fontColor=#ffffff;" parent="1" vertex="1">
                    <mxGeometry x="50" y="315" width="260" height="180" as="geometry"/>
                </mxCell>
                <mxCell id="layP9ToiB4lRC02KzmWV-10" value="" style="rounded=1;whiteSpace=wrap;html=1;absoluteArcSize=1;arcSize=14;strokeWidth=2;fillColor=#6d8764;fontColor=#ffffff;strokeColor=#3A5431;" parent="1" vertex="1">
                    <mxGeometry x="500" y="210" width="570" height="350" as="geometry"/>
                </mxCell>
                <mxCell id="layP9ToiB4lRC02KzmWV-11" value="&lt;font color=&quot;#333333&quot; style=&quot;font-size: 17px;&quot; face=&quot;Courier New&quot;&gt;AVAILABLE ITEMS&lt;/font&gt;" style="swimlane;childLayout=stackLayout;horizontal=1;fillColor=none;horizontalStack=1;resizeParent=1;resizeParentMax=0;resizeLast=0;collapsible=0;strokeColor=none;stackBorder=10;stackSpacing=-12;resizable=1;align=center;points=[];whiteSpace=wrap;html=1;" parent="1" vertex="1">
                    <mxGeometry x="752" y="230" width="296" height="100" as="geometry"/>
                </mxCell>
                <mxCell id="layP9ToiB4lRC02KzmWV-12" value="ITEM 3" style="shape=step;perimeter=stepPerimeter;fixedSize=1;points=[];whiteSpace=wrap;html=1;fillColor=#a20025;fontColor=#ffffff;strokeColor=#6F0000;" parent="layP9ToiB4lRC02KzmWV-11" vertex="1">
                    <mxGeometry x="10" y="33" width="100" height="57" as="geometry"/>
                </mxCell>
                <mxCell id="layP9ToiB4lRC02KzmWV-13" value="ITEM 2" style="shape=step;perimeter=stepPerimeter;fixedSize=1;points=[];whiteSpace=wrap;html=1;fillColor=#a20025;fontColor=#ffffff;strokeColor=#6F0000;" parent="layP9ToiB4lRC02KzmWV-11" vertex="1">
                    <mxGeometry x="98" y="33" width="100" height="57" as="geometry"/>
                </mxCell>
                <mxCell id="layP9ToiB4lRC02KzmWV-14" value="ITEM 1" style="shape=step;perimeter=stepPerimeter;fixedSize=1;points=[];whiteSpace=wrap;html=1;fillColor=#a20025;fontColor=#ffffff;strokeColor=#6F0000;" parent="layP9ToiB4lRC02KzmWV-11" vertex="1">
                    <mxGeometry x="186" y="33" width="100" height="57" as="geometry"/>
                </mxCell>
                <mxCell id="layP9ToiB4lRC02KzmWV-16" value="&lt;font color=&quot;#333333&quot; style=&quot;font-size: 17px;&quot; face=&quot;Courier New&quot;&gt;REQUESTS FOR ITEMS&lt;/font&gt;" style="swimlane;childLayout=stackLayout;horizontal=1;fillColor=none;horizontalStack=1;resizeParent=1;resizeParentMax=0;resizeLast=0;collapsible=0;strokeColor=none;stackBorder=10;stackSpacing=-12;resizable=1;align=center;points=[];whiteSpace=wrap;html=1;" parent="1" vertex="1">
                    <mxGeometry x="758" y="448" width="296" height="100" as="geometry"/>
                </mxCell>
                <mxCell id="layP9ToiB4lRC02KzmWV-17" value="REQ 3&amp;nbsp;" style="shape=step;perimeter=stepPerimeter;fixedSize=1;points=[];whiteSpace=wrap;html=1;fillColor=#6a00ff;fontColor=#ffffff;strokeColor=#3700CC;" parent="layP9ToiB4lRC02KzmWV-16" vertex="1">
                    <mxGeometry x="10" y="33" width="100" height="57" as="geometry"/>
                </mxCell>
                <mxCell id="layP9ToiB4lRC02KzmWV-18" value="REQ 2" style="shape=step;perimeter=stepPerimeter;fixedSize=1;points=[];whiteSpace=wrap;html=1;fillColor=#6a00ff;fontColor=#ffffff;strokeColor=#3700CC;" parent="layP9ToiB4lRC02KzmWV-16" vertex="1">
                    <mxGeometry x="98" y="33" width="100" height="57" as="geometry"/>
                </mxCell>
                <mxCell id="layP9ToiB4lRC02KzmWV-19" value="REQ 1" style="shape=step;perimeter=stepPerimeter;fixedSize=1;points=[];whiteSpace=wrap;html=1;fillColor=#6a00ff;fontColor=#ffffff;strokeColor=#3700CC;" parent="layP9ToiB4lRC02KzmWV-16" vertex="1">
                    <mxGeometry x="186" y="33" width="100" height="57" as="geometry"/>
                </mxCell>
                <mxCell id="layP9ToiB4lRC02KzmWV-22" value="" style="endArrow=classic;html=1;rounded=0;entryX=0.2;entryY=0.474;entryDx=0;entryDy=0;entryPerimeter=0;spacing=2;strokeWidth=2;startArrow=oval;startFill=0;startSize=15;" parent="1" target="layP9ToiB4lRC02KzmWV-12" edge="1">
                    <mxGeometry relative="1" as="geometry">
                        <mxPoint x="320" y="290" as="sourcePoint"/>
                        <mxPoint x="570" y="290" as="targetPoint"/>
                    </mxGeometry>
                </mxCell>
                <mxCell id="layP9ToiB4lRC02KzmWV-29" value="" style="endArrow=classic;html=1;rounded=0;startArrow=oval;startFill=0;endSize=6;startSize=15;spacing=2;strokeWidth=2;entryX=1.015;entryY=0.45;entryDx=0;entryDy=0;entryPerimeter=0;" parent="1" target="layP9ToiB4lRC02KzmWV-31" edge="1">
                    <mxGeometry relative="1" as="geometry">
                        <mxPoint x="1040" y="397" as="sourcePoint"/>
                        <mxPoint x="340" y="397" as="targetPoint"/>
                    </mxGeometry>
                </mxCell>
                <mxCell id="layP9ToiB4lRC02KzmWV-32" value="" style="endArrow=classic;html=1;rounded=0;spacing=2;strokeWidth=2;startArrow=oval;startFill=0;endSize=6;startSize=15;" parent="1" edge="1">
                    <mxGeometry width="50" height="50" relative="1" as="geometry">
                        <mxPoint x="610" y="395" as="sourcePoint"/>
                        <mxPoint x="610" y="290" as="targetPoint"/>
                    </mxGeometry>
                </mxCell>
                <mxCell id="layP9ToiB4lRC02KzmWV-37" value="" style="endArrow=classic;html=1;rounded=0;exitX=0.99;exitY=0.491;exitDx=0;exitDy=0;exitPerimeter=0;startArrow=oval;startFill=0;endFill=1;endSize=6;startSize=15;spacing=2;strokeWidth=2;dashed=1;dashPattern=1 2;" parent="1" source="layP9ToiB4lRC02KzmWV-19" edge="1">
                    <mxGeometry width="50" height="50" relative="1" as="geometry">
                        <mxPoint x="1002" y="340" as="sourcePoint"/>
                        <mxPoint x="1041" y="407" as="targetPoint"/>
                    </mxGeometry>
                </mxCell>
                <mxCell id="layP9ToiB4lRC02KzmWV-38" value="pool.add(item)" style="text;html=1;strokeColor=#6F0000;fillColor=#a20025;align=center;verticalAlign=middle;whiteSpace=wrap;rounded=0;fontFamily=Courier New;fontSize=16;fontColor=#ffffff;fontStyle=1" parent="1" vertex="1">
                    <mxGeometry x="322" y="247" width="173" height="30" as="geometry"/>
                </mxCell>
                <mxCell id="layP9ToiB4lRC02KzmWV-39" value="await pool.use()" style="text;html=1;strokeColor=#6F0000;fillColor=#a20025;align=center;verticalAlign=middle;whiteSpace=wrap;rounded=0;fontFamily=Courier New;fontSize=16;fontColor=#ffffff;fontStyle=1" parent="1" vertex="1">
                    <mxGeometry x="321" y="353" width="173" height="30" as="geometry"/>
                </mxCell>
                <mxCell id="layP9ToiB4lRC02KzmWV-40" value="release()" style="text;html=1;strokeColor=none;fillColor=none;align=left;verticalAlign=middle;whiteSpace=wrap;rounded=0;fontFamily=Courier New;fontSize=16;fontColor=#ffffff;" parent="1" vertex="1">
                    <mxGeometry x="60" y="437" width="98" height="30" as="geometry"/>
                </mxCell>
                <mxCell id="layP9ToiB4lRC02KzmWV-43" value="shiftQueue()" style="text;html=1;strokeColor=none;fillColor=none;align=center;verticalAlign=middle;whiteSpace=wrap;rounded=0;fontFamily=Courier New;fontSize=16;" parent="1" vertex="1">
                    <mxGeometry x="917" y="418" width="120" height="30" as="geometry"/>
                </mxCell>
                <mxCell id="layP9ToiB4lRC02KzmWV-44" value="inQueue()" style="text;html=1;strokeColor=none;fillColor=none;align=center;verticalAlign=middle;whiteSpace=wrap;rounded=0;fontFamily=Courier New;fontSize=16;" parent="1" vertex="1">
                    <mxGeometry x="752" y="418" width="60" height="30" as="geometry"/>
                </mxCell>
                <mxCell id="layP9ToiB4lRC02KzmWV-47" value="" style="endArrow=classic;html=1;rounded=0;startArrow=oval;startFill=0;startSize=15;spacing=2;strokeWidth=2;edgeStyle=elbowEdgeStyle;elbow=vertical;dashed=1;dashPattern=1 2;entryX=0.14;entryY=0.456;entryDx=0;entryDy=0;entryPerimeter=0;" parent="1" target="layP9ToiB4lRC02KzmWV-17" edge="1">
                    <mxGeometry width="50" height="50" relative="1" as="geometry">
                        <mxPoint x="730" y="396.67999999999995" as="sourcePoint"/>
                        <mxPoint x="780" y="490" as="targetPoint"/>
                        <Array as="points">
                            <mxPoint x="760" y="507"/>
                        </Array>
                    </mxGeometry>
                </mxCell>
                <mxCell id="layP9ToiB4lRC02KzmWV-49" value="POOL" style="text;html=1;strokeColor=none;fillColor=none;align=left;verticalAlign=middle;whiteSpace=wrap;rounded=0;fontFamily=Courier New;fontSize=20;fontStyle=1" parent="1" vertex="1">
                    <mxGeometry x="510" y="213" width="60" height="30" as="geometry"/>
                </mxCell>
                <mxCell id="layP9ToiB4lRC02KzmWV-54" value="CONSUMER" style="text;html=1;strokeColor=none;fillColor=none;align=left;verticalAlign=middle;whiteSpace=wrap;rounded=0;fontFamily=Courier New;fontSize=20;fontStyle=1" parent="1" vertex="1">
                    <mxGeometry x="60" y="320" width="60" height="30" as="geometry"/>
                </mxCell>
                <mxCell id="layP9ToiB4lRC02KzmWV-55" value="" style="endArrow=blockThin;dashed=1;html=1;dashPattern=1 3;strokeWidth=2;rounded=0;edgeStyle=elbowEdgeStyle;startArrow=oval;startFill=0;endFill=0;entryX=0.5;entryY=0;entryDx=0;entryDy=0;elbow=vertical;" parent="1" target="layP9ToiB4lRC02KzmWV-43" edge="1">
                    <mxGeometry width="50" height="50" relative="1" as="geometry">
                        <mxPoint x="736" y="290" as="sourcePoint"/>
                        <mxPoint x="888.9999999999998" y="366" as="targetPoint"/>
                        <Array as="points">
                            <mxPoint x="860" y="360"/>
                        </Array>
                    </mxGeometry>
                </mxCell>
                <mxCell id="-CQFBuDnWnxYUMfJOQEK-1" value="addAvailable(item)" style="text;html=1;strokeColor=none;fillColor=none;align=center;verticalAlign=middle;whiteSpace=wrap;rounded=0;fontFamily=Courier New;fontSize=16;" parent="1" vertex="1">
                    <mxGeometry x="615" y="252" width="120" height="30" as="geometry"/>
                </mxCell>
                <mxCell id="hxqacitkzJQxrEjLy1sz-1" value="const&amp;nbsp;{ item, release } =" style="text;html=1;strokeColor=none;fillColor=none;align=left;verticalAlign=middle;whiteSpace=wrap;rounded=0;fontFamily=Courier New;fontSize=16;fontColor=#ffffff;" parent="1" vertex="1">
                    <mxGeometry x="60" y="355" width="250" height="30" as="geometry"/>
                </mxCell>
                <mxCell id="hxqacitkzJQxrEjLy1sz-2" value="item.method()" style="text;html=1;strokeColor=none;fillColor=none;align=left;verticalAlign=middle;whiteSpace=wrap;rounded=0;fontFamily=Courier New;fontSize=16;fontColor=#ffffff;" parent="1" vertex="1">
                    <mxGeometry x="60" y="379.5" width="98" height="30" as="geometry"/>
                </mxCell>
                <mxCell id="hxqacitkzJQxrEjLy1sz-5" value="" style="endArrow=blockThin;dashed=1;html=1;dashPattern=1 3;strokeWidth=2;rounded=0;edgeStyle=elbowEdgeStyle;startArrow=oval;startFill=0;endFill=0;exitX=1;exitY=0.5;exitDx=0;exitDy=0;" parent="1" source="layP9ToiB4lRC02KzmWV-40" edge="1">
                    <mxGeometry width="50" height="50" relative="1" as="geometry">
                        <mxPoint x="330" y="450" as="sourcePoint"/>
                        <mxPoint x="610" y="350" as="targetPoint"/>
                        <Array as="points">
                            <mxPoint x="540" y="420"/>
                        </Array>
                    </mxGeometry>
                </mxCell>
                <mxCell id="U_ddFZ2nkHVzu4WkRLTJ-3" value="" style="endArrow=classic;html=1;rounded=0;spacing=2;strokeWidth=2;startArrow=oval;startFill=0;endSize=6;startSize=15;exitX=1.02;exitY=0.474;exitDx=0;exitDy=0;exitPerimeter=0;" parent="1" source="layP9ToiB4lRC02KzmWV-14" edge="1">
                    <mxGeometry width="50" height="50" relative="1" as="geometry">
                        <mxPoint x="1010" y="440" as="sourcePoint"/>
                        <mxPoint x="1040" y="390" as="targetPoint"/>
                    </mxGeometry>
                </mxCell>
                <mxCell id="dOyptY4ot9F83NCu5IWQ-2" value="" style="shape=cylinder3;whiteSpace=wrap;html=1;boundedLbl=1;backgroundOutline=1;size=15;fontSize=12;fontFamily=Helvetica;fillColor=#a20025;strokeColor=#6F0000;fontColor=#ffffff;gradientColor=none;rounded=0;" parent="1" vertex="1">
                    <mxGeometry x="523" y="250" width="60" height="80" as="geometry"/>
                </mxCell>
                <mxCell id="dOyptY4ot9F83NCu5IWQ-3" value="SET" style="text;html=1;strokeColor=none;fillColor=none;align=center;verticalAlign=middle;whiteSpace=wrap;rounded=0;fontFamily=Courier New;fontSize=16;fontColor=#ffffff;fontStyle=1" parent="1" vertex="1">
                    <mxGeometry x="533.5" y="252" width="39" height="30" as="geometry"/>
                </mxCell>
            </root>
        </mxGraphModel>
    </diagram>
    <diagram id="bSVLDUmtunfN6azAAVbz" name="IMPRESS">
        <mxGraphModel dx="273" dy="432" grid="1" gridSize="10" guides="1" tooltips="1" connect="1" arrows="1" fold="1" page="1" pageScale="1" pageWidth="1169" pageHeight="827" math="0" shadow="0">
            <root>
                <mxCell id="0"/>
                <mxCell id="1" parent="0"/>
                <mxCell id="WltT2IjfWszcJkGQE8MS-1" value="IMPRESS" style="swimlane;whiteSpace=wrap;html=1;fillColor=#d80073;strokeColor=#A50040;fontColor=#ffffff;glass=0;" parent="1" vertex="1">
                    <mxGeometry x="40" y="30" width="940" height="630" as="geometry">
                        <mxRectangle x="40" y="30" width="90" height="30" as="alternateBounds"/>
                    </mxGeometry>
                </mxCell>
                <mxCell id="WltT2IjfWszcJkGQE8MS-4" value="IMPRESS STATE" style="swimlane;whiteSpace=wrap;html=1;fillColor=#60a917;fontColor=#ffffff;strokeColor=#2D7600;" parent="WltT2IjfWszcJkGQE8MS-1" vertex="1">
                    <mxGeometry x="40" y="50" width="220" height="240" as="geometry"/>
                </mxCell>
                <mxCell id="WltT2IjfWszcJkGQE8MS-5" value="&lt;div style=&quot;font-family: Consolas, &amp;quot;Courier New&amp;quot;, monospace; font-size: 14px; line-height: 19px;&quot;&gt;&lt;div style=&quot;&quot;&gt;&lt;font color=&quot;#9872a2&quot;&gt;logger&lt;/font&gt;&lt;font color=&quot;#c5c8c6&quot;&gt;: &lt;/font&gt;&lt;span style=&quot;color: rgb(64, 128, 128);&quot;&gt;null&lt;/span&gt;&lt;font color=&quot;#c5c8c6&quot;&gt;,&lt;/font&gt;&lt;/div&gt;&lt;div style=&quot;color: rgb(197, 200, 198);&quot;&gt;&lt;span style=&quot;color: #9872a2;&quot;&gt;config&lt;/span&gt;: &lt;span style=&quot;color: #408080;&quot;&gt;null&lt;/span&gt;,&lt;/div&gt;&lt;div style=&quot;color: rgb(197, 200, 198);&quot;&gt;&lt;span style=&quot;color: #9872a2;&quot;&gt;planner&lt;/span&gt;: &lt;span style=&quot;color: #408080;&quot;&gt;null&lt;/span&gt;,&lt;/div&gt;&lt;div style=&quot;color: rgb(197, 200, 198);&quot;&gt;&lt;span style=&quot;color: #ce6700;&quot;&gt;close&lt;/span&gt;: () &lt;span style=&quot;color: #9872a2;&quot;&gt;=&amp;gt;&lt;/span&gt; {},&lt;/div&gt;&lt;div style=&quot;color: rgb(197, 200, 198);&quot;&gt;&lt;span style=&quot;color: #9872a2;&quot;&gt;finalization&lt;/span&gt;: &lt;span style=&quot;color: #408080;&quot;&gt;false&lt;/span&gt;,&lt;/div&gt;&lt;div style=&quot;color: rgb(197, 200, 198);&quot;&gt;&lt;span style=&quot;color: #9872a2;&quot;&gt;initialization&lt;/span&gt;: &lt;span style=&quot;color: #408080;&quot;&gt;true&lt;/span&gt;,&lt;/div&gt;&lt;div style=&quot;color: rgb(197, 200, 198);&quot;&gt;&lt;span style=&quot;color: #9872a2;&quot;&gt;console&lt;/span&gt;,&lt;/div&gt;&lt;div style=&quot;color: rgb(197, 200, 198);&quot;&gt;&lt;span style=&quot;color: #9872a2;&quot;&gt;applications&lt;/span&gt;: &lt;span style=&quot;color: #676867;&quot;&gt;new&lt;/span&gt; &lt;span style=&quot;color: #c7444a;&quot;&gt;Map&lt;/span&gt;(),&lt;/div&gt;&lt;div style=&quot;color: rgb(197, 200, 198);&quot;&gt;&lt;span style=&quot;color: #9872a2;&quot;&gt;lastWorkerId&lt;/span&gt;: &lt;span style=&quot;color: #6089b4;&quot;&gt;0&lt;/span&gt;,&lt;/div&gt;&lt;div style=&quot;color: rgb(197, 200, 198);&quot;&gt;&lt;span style=&quot;color: rgb(152, 114, 162);&quot;&gt;startTimer&lt;/span&gt;: &lt;span style=&quot;color: rgb(64, 128, 128);&quot;&gt;null&lt;/span&gt;,&lt;/div&gt;&lt;/div&gt;" style="text;html=1;align=left;verticalAlign=middle;resizable=0;points=[];autosize=1;strokeColor=default;fillColor=none;dashed=1;" parent="WltT2IjfWszcJkGQE8MS-4" vertex="1">
                    <mxGeometry x="5" y="30" width="210" height="200" as="geometry"/>
                </mxCell>
                <mxCell id="WltT2IjfWszcJkGQE8MS-6" value="application 1" style="swimlane;whiteSpace=wrap;html=1;fillColor=#60a917;fontColor=#ffffff;strokeColor=#2D7600;" parent="WltT2IjfWszcJkGQE8MS-1" vertex="1">
                    <mxGeometry x="370" y="50" width="110" height="169" as="geometry"/>
                </mxCell>
                <mxCell id="WltT2IjfWszcJkGQE8MS-7" value="&lt;div style=&quot;color: rgb(197, 200, 198); font-family: Consolas, &amp;quot;Courier New&amp;quot;, monospace; font-size: 14px; line-height: 19px;&quot;&gt;&lt;div style=&quot;line-height: 19px;&quot;&gt;&lt;div style=&quot;line-height: 19px;&quot;&gt;&lt;span style=&quot;color: rgb(152, 114, 162);&quot;&gt;root&lt;/span&gt;,&lt;/div&gt;&lt;div style=&quot;line-height: 19px;&quot;&gt;&lt;span style=&quot;color: #9872a2;&quot;&gt;path&lt;/span&gt;,&lt;/div&gt;&lt;div style=&quot;line-height: 19px;&quot;&gt;&lt;span style=&quot;color: #9872a2;&quot;&gt;config&lt;/span&gt;,&lt;/div&gt;&lt;div style=&quot;line-height: 19px;&quot;&gt;&lt;span style=&quot;color: #9872a2;&quot;&gt;threads&lt;/span&gt;,&lt;/div&gt;&lt;div style=&quot;line-height: 19px;&quot;&gt;&lt;span style=&quot;color: #9872a2;&quot;&gt;pool&lt;/span&gt;,&lt;/div&gt;&lt;div style=&quot;line-height: 19px;&quot;&gt;&lt;span style=&quot;color: rgb(152, 114, 162);&quot;&gt;ready&lt;/span&gt;,&lt;/div&gt;&lt;/div&gt;&lt;/div&gt;" style="text;html=1;align=left;verticalAlign=middle;resizable=0;points=[];autosize=1;strokeColor=default;fillColor=none;dashed=1;" parent="WltT2IjfWszcJkGQE8MS-6" vertex="1">
                    <mxGeometry x="10" y="30" width="90" height="130" as="geometry"/>
                </mxCell>
                <mxCell id="WltT2IjfWszcJkGQE8MS-13" value="" style="endArrow=classic;html=1;rounded=0;exitX=1.006;exitY=0.733;exitDx=0;exitDy=0;exitPerimeter=0;edgeStyle=elbowEdgeStyle;entryX=-0.018;entryY=0.079;entryDx=0;entryDy=0;entryPerimeter=0;" parent="WltT2IjfWszcJkGQE8MS-1" source="WltT2IjfWszcJkGQE8MS-5" target="WltT2IjfWszcJkGQE8MS-6" edge="1">
                    <mxGeometry width="50" height="50" relative="1" as="geometry">
                        <mxPoint x="420" y="200" as="sourcePoint"/>
                        <mxPoint x="470" y="150" as="targetPoint"/>
                    </mxGeometry>
                </mxCell>
                <mxCell id="WltT2IjfWszcJkGQE8MS-15" value="" style="endArrow=classic;html=1;rounded=0;edgeStyle=elbowEdgeStyle;entryX=0.733;entryY=-0.01;entryDx=0;entryDy=0;entryPerimeter=0;exitX=1;exitY=0.562;exitDx=0;exitDy=0;exitPerimeter=0;" parent="WltT2IjfWszcJkGQE8MS-1" source="WltT2IjfWszcJkGQE8MS-7" target="WltT2IjfWszcJkGQE8MS-17" edge="1">
                    <mxGeometry width="50" height="50" relative="1" as="geometry">
                        <mxPoint x="470" y="150" as="sourcePoint"/>
                        <mxPoint x="660" y="280" as="targetPoint"/>
                        <Array as="points">
                            <mxPoint x="692" y="240"/>
                        </Array>
                    </mxGeometry>
                </mxCell>
                <mxCell id="WltT2IjfWszcJkGQE8MS-17" value="THREADS" style="swimlane;whiteSpace=wrap;html=1;fillColor=#6a00ff;fontColor=#ffffff;strokeColor=#3700CC;" parent="WltT2IjfWszcJkGQE8MS-1" vertex="1">
                    <mxGeometry x="40" y="320" width="890" height="300" as="geometry"/>
                </mxCell>
                <mxCell id="WltT2IjfWszcJkGQE8MS-19" value="POOL" style="swimlane;whiteSpace=wrap;html=1;fillColor=#6a00ff;fontColor=#ffffff;strokeColor=#3700CC;" parent="WltT2IjfWszcJkGQE8MS-17" vertex="1">
                    <mxGeometry x="440" y="40" width="440" height="250" as="geometry">
                        <mxRectangle x="440" y="40" width="70" height="30" as="alternateBounds"/>
                    </mxGeometry>
                </mxCell>
                <mxCell id="WltT2IjfWszcJkGQE8MS-16" value="WORKER" style="swimlane;whiteSpace=wrap;html=1;fillColor=#d80073;fontColor=#ffffff;strokeColor=#A50040;" parent="WltT2IjfWszcJkGQE8MS-19" vertex="1">
                    <mxGeometry x="230" y="40" width="200" height="200" as="geometry"/>
                </mxCell>
                <mxCell id="XhwqMFY7zwbJ-ALYG1bg-45" value="&lt;div style=&quot;font-family: Consolas, &amp;quot;Courier New&amp;quot;, monospace; font-size: 14px; line-height: 19px;&quot;&gt;&lt;div style=&quot;line-height: 19px;&quot;&gt;&lt;div style=&quot;line-height: 19px;&quot;&gt;&lt;font style=&quot;&quot; color=&quot;#9872a2&quot;&gt;parent.on(ready)&lt;/font&gt;&lt;/div&gt;&lt;div style=&quot;line-height: 19px;&quot;&gt;&lt;font color=&quot;#9872a2&quot;&gt;parent.on(stop)&lt;/font&gt;&lt;/div&gt;&lt;div style=&quot;line-height: 19px;&quot;&gt;&lt;font style=&quot;&quot; color=&quot;#9872a2&quot;&gt;parent.on(invoke)&lt;/font&gt;&lt;/div&gt;&lt;/div&gt;&lt;/div&gt;" style="text;html=1;align=left;verticalAlign=middle;resizable=0;points=[];autosize=1;strokeColor=default;fillColor=none;dashed=1;" parent="WltT2IjfWszcJkGQE8MS-16" vertex="1">
                    <mxGeometry x="10" y="30" width="150" height="70" as="geometry"/>
                </mxCell>
                <mxCell id="WltT2IjfWszcJkGQE8MS-14" value="WORKER" style="swimlane;whiteSpace=wrap;html=1;fillColor=#d80073;fontColor=#ffffff;strokeColor=#A50040;" parent="WltT2IjfWszcJkGQE8MS-19" vertex="1">
                    <mxGeometry x="10" y="40" width="200" height="200" as="geometry"/>
                </mxCell>
                <mxCell id="XhwqMFY7zwbJ-ALYG1bg-4" value="&lt;div style=&quot;font-family: Consolas, &amp;quot;Courier New&amp;quot;, monospace; font-size: 14px; line-height: 19px;&quot;&gt;&lt;div style=&quot;line-height: 19px;&quot;&gt;&lt;div style=&quot;line-height: 19px;&quot;&gt;&lt;font style=&quot;&quot; color=&quot;#9872a2&quot;&gt;parent.on(ready)&lt;/font&gt;&lt;/div&gt;&lt;div style=&quot;line-height: 19px;&quot;&gt;&lt;font color=&quot;#9872a2&quot;&gt;parent.on(stop)&lt;/font&gt;&lt;/div&gt;&lt;div style=&quot;line-height: 19px;&quot;&gt;&lt;font style=&quot;&quot; color=&quot;#9872a2&quot;&gt;parent.on(invoke)&lt;/font&gt;&lt;/div&gt;&lt;/div&gt;&lt;/div&gt;" style="text;html=1;align=left;verticalAlign=middle;resizable=0;points=[];autosize=1;strokeColor=default;fillColor=none;dashed=1;" parent="WltT2IjfWszcJkGQE8MS-14" vertex="1">
                    <mxGeometry x="10" y="30" width="150" height="70" as="geometry"/>
                </mxCell>
                <mxCell id="WltT2IjfWszcJkGQE8MS-3" value="WORKER server" style="swimlane;whiteSpace=wrap;html=1;fillColor=#d80073;fontColor=#ffffff;strokeColor=#A50040;" parent="WltT2IjfWszcJkGQE8MS-17" vertex="1">
                    <mxGeometry x="230" y="80" width="200" height="200" as="geometry"/>
                </mxCell>
                <mxCell id="XhwqMFY7zwbJ-ALYG1bg-1" value="&lt;div style=&quot;font-family: Consolas, &amp;quot;Courier New&amp;quot;, monospace; font-size: 14px; line-height: 19px;&quot;&gt;&lt;div style=&quot;line-height: 19px;&quot;&gt;&lt;div style=&quot;line-height: 19px;&quot;&gt;&lt;font style=&quot;&quot; color=&quot;#9872a2&quot;&gt;parent.on(ready)&lt;/font&gt;&lt;/div&gt;&lt;div style=&quot;line-height: 19px;&quot;&gt;&lt;font color=&quot;#9872a2&quot;&gt;parent.on(stop)&lt;/font&gt;&lt;/div&gt;&lt;div style=&quot;line-height: 19px;&quot;&gt;&lt;font style=&quot;&quot; color=&quot;#9872a2&quot;&gt;parent.on(invoke)&lt;/font&gt;&lt;/div&gt;&lt;/div&gt;&lt;/div&gt;" style="text;html=1;align=left;verticalAlign=middle;resizable=0;points=[];autosize=1;strokeColor=default;fillColor=none;dashed=1;" parent="WltT2IjfWszcJkGQE8MS-3" vertex="1">
                    <mxGeometry x="10" y="30" width="150" height="70" as="geometry"/>
                </mxCell>
                <mxCell id="XhwqMFY7zwbJ-ALYG1bg-2" value="&lt;div style=&quot;font-family: Consolas, &amp;quot;Courier New&amp;quot;, monospace; font-size: 14px; line-height: 19px;&quot;&gt;&lt;div style=&quot;line-height: 19px;&quot;&gt;&lt;div style=&quot;line-height: 19px;&quot;&gt;&lt;font style=&quot;&quot; color=&quot;#9872a2&quot;&gt;sb.app.invoke =&lt;/font&gt;&lt;/div&gt;&lt;div style=&quot;line-height: 19px;&quot;&gt;&lt;font color=&quot;#9872a2&quot;&gt;&amp;nbsp; invoke() {&lt;/font&gt;&lt;/div&gt;&lt;div style=&quot;line-height: 19px;&quot;&gt;&lt;font color=&quot;#9872a2&quot;&gt;&amp;nbsp; &amp;nbsp; parent.invoke()&lt;/font&gt;&lt;/div&gt;&lt;div style=&quot;line-height: 19px;&quot;&gt;&lt;font style=&quot;&quot; color=&quot;#9872a2&quot;&gt;&amp;nbsp; }&lt;/font&gt;&lt;/div&gt;&lt;/div&gt;&lt;/div&gt;" style="text;html=1;align=left;verticalAlign=middle;resizable=0;points=[];autosize=1;strokeColor=default;fillColor=none;dashed=1;" parent="WltT2IjfWszcJkGQE8MS-3" vertex="1">
                    <mxGeometry x="10" y="104" width="170" height="90" as="geometry"/>
                </mxCell>
                <mxCell id="WltT2IjfWszcJkGQE8MS-2" value="WORKER balncer" style="swimlane;whiteSpace=wrap;html=1;fillColor=#d80073;fontColor=#ffffff;strokeColor=#A50040;" parent="WltT2IjfWszcJkGQE8MS-17" vertex="1">
                    <mxGeometry x="10" y="80" width="200" height="200" as="geometry"/>
                </mxCell>
                <mxCell id="s5zWGjcAw957GGgkaD5Y-29" style="edgeStyle=orthogonalEdgeStyle;rounded=0;orthogonalLoop=1;jettySize=auto;html=1;strokeWidth=2;fillColor=#1ba1e2;strokeColor=#006EAF;entryX=-0.009;entryY=0.04;entryDx=0;entryDy=0;entryPerimeter=0;exitX=0.941;exitY=0.289;exitDx=0;exitDy=0;exitPerimeter=0;" parent="WltT2IjfWszcJkGQE8MS-17" source="XhwqMFY7zwbJ-ALYG1bg-2" target="WltT2IjfWszcJkGQE8MS-19" edge="1">
                    <mxGeometry relative="1" as="geometry">
                        <mxPoint x="420" y="50" as="targetPoint"/>
                        <mxPoint x="490" y="-90" as="sourcePoint"/>
                        <Array as="points">
                            <mxPoint x="401" y="210"/>
                            <mxPoint x="401" y="50"/>
                        </Array>
                    </mxGeometry>
                </mxCell>
                <mxCell id="WltT2IjfWszcJkGQE8MS-18" value="" style="endArrow=classic;html=1;rounded=0;edgeStyle=elbowEdgeStyle;exitX=1.022;exitY=0.735;exitDx=0;exitDy=0;exitPerimeter=0;entryX=0.25;entryY=0;entryDx=0;entryDy=0;" parent="WltT2IjfWszcJkGQE8MS-1" source="WltT2IjfWszcJkGQE8MS-7" target="WltT2IjfWszcJkGQE8MS-19" edge="1">
                    <mxGeometry width="50" height="50" relative="1" as="geometry">
                        <mxPoint x="490" y="170" as="sourcePoint"/>
                        <mxPoint x="630" y="360" as="targetPoint"/>
                        <Array as="points">
                            <mxPoint x="590" y="280"/>
                        </Array>
                    </mxGeometry>
                </mxCell>
                <mxCell id="WltT2IjfWszcJkGQE8MS-20" value="application 2" style="swimlane;whiteSpace=wrap;html=1;fillColor=#60a917;fontColor=#ffffff;strokeColor=#2D7600;" parent="WltT2IjfWszcJkGQE8MS-1" vertex="1">
                    <mxGeometry x="720" y="50" width="110" height="169" as="geometry"/>
                </mxCell>
                <mxCell id="WltT2IjfWszcJkGQE8MS-21" value="&lt;div style=&quot;color: rgb(197, 200, 198); font-family: Consolas, &amp;quot;Courier New&amp;quot;, monospace; font-size: 14px; line-height: 19px;&quot;&gt;&lt;div style=&quot;line-height: 19px;&quot;&gt;&lt;div style=&quot;line-height: 19px;&quot;&gt;&lt;span style=&quot;color: rgb(152, 114, 162);&quot;&gt;root&lt;/span&gt;,&lt;/div&gt;&lt;div style=&quot;line-height: 19px;&quot;&gt;&lt;span style=&quot;color: #9872a2;&quot;&gt;path&lt;/span&gt;,&lt;/div&gt;&lt;div style=&quot;line-height: 19px;&quot;&gt;&lt;span style=&quot;color: #9872a2;&quot;&gt;config&lt;/span&gt;,&lt;/div&gt;&lt;div style=&quot;line-height: 19px;&quot;&gt;&lt;span style=&quot;color: #9872a2;&quot;&gt;threads&lt;/span&gt;,&lt;/div&gt;&lt;div style=&quot;line-height: 19px;&quot;&gt;&lt;span style=&quot;color: #9872a2;&quot;&gt;pool&lt;/span&gt;,&lt;/div&gt;&lt;div style=&quot;line-height: 19px;&quot;&gt;&lt;span style=&quot;color: rgb(152, 114, 162);&quot;&gt;ready&lt;/span&gt;,&lt;/div&gt;&lt;/div&gt;&lt;/div&gt;" style="text;html=1;align=left;verticalAlign=middle;resizable=0;points=[];autosize=1;strokeColor=default;fillColor=none;dashed=1;" parent="WltT2IjfWszcJkGQE8MS-20" vertex="1">
                    <mxGeometry x="10" y="30" width="90" height="130" as="geometry"/>
                </mxCell>
                <mxCell id="s5zWGjcAw957GGgkaD5Y-4" style="edgeStyle=orthogonalEdgeStyle;rounded=0;orthogonalLoop=1;jettySize=auto;html=1;strokeWidth=2;fillColor=#1ba1e2;strokeColor=#006EAF;" parent="1" source="s5zWGjcAw957GGgkaD5Y-3" edge="1">
                    <mxGeometry relative="1" as="geometry">
                        <mxPoint x="180" y="630" as="targetPoint"/>
                    </mxGeometry>
                </mxCell>
                <mxCell id="s5zWGjcAw957GGgkaD5Y-3" value="request" style="rounded=1;whiteSpace=wrap;html=1;fillColor=#1ba1e2;fontColor=#ffffff;strokeColor=#006EAF;" parent="1" vertex="1">
                    <mxGeometry x="120" y="720" width="120" height="30" as="geometry"/>
                </mxCell>
                <mxCell id="s5zWGjcAw957GGgkaD5Y-5" style="edgeStyle=orthogonalEdgeStyle;rounded=0;orthogonalLoop=1;jettySize=auto;html=1;exitX=1;exitY=0.5;exitDx=0;exitDy=0;entryX=0.5;entryY=1;entryDx=0;entryDy=0;strokeWidth=2;fillColor=#1ba1e2;strokeColor=#006EAF;" parent="1" source="s5zWGjcAw957GGgkaD5Y-3" target="WltT2IjfWszcJkGQE8MS-3" edge="1">
                    <mxGeometry relative="1" as="geometry">
                        <mxPoint x="280" y="640" as="targetPoint"/>
                        <mxPoint x="280" y="730" as="sourcePoint"/>
                        <Array as="points">
                            <mxPoint x="410" y="735"/>
                        </Array>
                    </mxGeometry>
                </mxCell>
                <mxCell id="s5zWGjcAw957GGgkaD5Y-30" style="edgeStyle=orthogonalEdgeStyle;rounded=0;orthogonalLoop=1;jettySize=auto;html=1;strokeWidth=2;fillColor=#1ba1e2;strokeColor=#006EAF;" parent="1" edge="1">
                    <mxGeometry relative="1" as="geometry">
                        <mxPoint x="220" y="630" as="targetPoint"/>
                        <mxPoint x="220" y="720" as="sourcePoint"/>
                    </mxGeometry>
                </mxCell>
            </root>
        </mxGraphModel>
    </diagram>
</mxfile>